<?xml version="1.0" encoding="UTF-8"?>
<svg width="100px" height="100px" viewBox="0 0 100 100" version="1.1" xmlns="http://www.w3.org/2000/svg" xmlns:xlink="http://www.w3.org/1999/xlink">
    <title>Untitled</title>
    <g id="tank" stroke="none" stroke-width="1" fill="none" fill-rule="evenodd">
        <rect id="Rectangle" stroke="#000000" stroke-width="2" fill="#0074D9" x="29" y="11" width="42" height="78" rx="5"></rect>
        <g id="Group" stroke="#000000" stroke-width="2">
            <rect id="Rectangle" fill="#1B3A56" x="1" y="1" width="28" height="98" rx="5"></rect>
            <line x1="2.375" y1="56.5" x2="28.625" y2="56.5" id="Line" stroke-linecap="square"></line>
            <line x1="2.375" y1="67.5" x2="28.625" y2="67.5" id="Line-Copy-8" stroke-linecap="square"></line>
            <line x1="2.375" y1="44.5" x2="28.625" y2="44.5" id="Line-Copy-9" stroke-linecap="square"></line>
            <line x1="2.375" y1="33.5" x2="28.625" y2="33.5" id="Line-Copy-4" stroke-linecap="square"></line>
            <line x1="2.375" y1="22.5" x2="28.625" y2="22.5" id="Line-Copy-6" stroke-linecap="square"></line>
            <line x1="2.375" y1="78.5" x2="28.625" y2="78.5" id="Line-Copy-5" stroke-linecap="square"></line>
            <line x1="2.375" y1="89.5" x2="28.625" y2="89.5" id="Line-Copy-7" stroke-linecap="square"></line>
            <line x1="2.375" y1="11.5" x2="28.625" y2="11.5" id="Line-Copy-3" stroke-linecap="square"></line>
        </g>
        <g id="Group-Copy" transform="translate(70.000000, 0.000000)" stroke="#000000" stroke-width="2">
            <rect id="Rectangle" fill="#1B3A56" x="1" y="1" width="28" height="98" rx="5"></rect>
            <line x1="2.375" y1="56.5" x2="28.625" y2="56.5" id="Line" stroke-linecap="square"></line>
            <line x1="2.375" y1="67.5" x2="28.625" y2="67.5" id="Line-Copy-8" stroke-linecap="square"></line>
            <line x1="2.375" y1="44.5" x2="28.625" y2="44.5" id="Line-Copy-9" stroke-linecap="square"></line>
            <line x1="2.375" y1="33.5" x2="28.625" y2="33.5" id="Line-Copy-4" stroke-linecap="square"></line>
            <line x1="2.375" y1="22.5" x2="28.625" y2="22.5" id="Line-Copy-6" stroke-linecap="square"></line>
            <line x1="2.375" y1="78.5" x2="28.625" y2="78.5" id="Line-Copy-5" stroke-linecap="square"></line>
            <line x1="2.375" y1="89.5" x2="28.625" y2="89.5" id="Line-Copy-7" stroke-linecap="square"></line>
            <line x1="2.375" y1="11.5" x2="28.625" y2="11.5" id="Line-Copy-3" stroke-linecap="square"></line>
        </g>
        <path d="M56,17 L56,22 L53.9999817,22 L54.0003915,44.4458979 C58.1769432,45.3934667 61.801398,47.7939031 64.3157523,51.0869227 C66.6273348,54.1143745 68,57.8969193 68,62 C68,66.9705627 65.9852814,71.4705627 62.7279221,74.7279221 C59.4705627,77.9852814 54.9705627,80 50,80 C45.0294373,80 40.5294373,77.9852814 37.2720779,74.7279221 C34.0147186,71.4705627 32,66.9705627 32,62 C32,57.8967417 33.3727841,54.1140472 35.6845478,51.0865297 C38.199099,47.7934389 41.8238246,45.3930306 46.0006484,44.445662 L46.0006484,44.445662 L45.9999698,22 L44,22 L44,17 L56,17 Z" id="Combined-Shape" stroke="#000000" stroke-width="2" fill="#004D90"></path>
    </g>
</svg>
